<svg xmlns="http://www.w3.org/2000/svg" width="104.74" height="91.23" viewBox="0 0 104.74 91.23">
  <g id="_1001009" data-name="1001009" transform="translate(0 -33.02)">
    <g id="Group_2552" data-name="Group 2552" transform="translate(0 33.02)">
      <g id="Group_2551" data-name="Group 2551" transform="translate(0)">
        <path id="Path_126" data-name="Path 126" d="M103.548,101.051a4.091,4.091,0,1,0-7.6,3.033,8.745,8.745,0,0,1-.934,8.15,8.631,8.631,0,0,1-7.252,3.834H16.993a8.788,8.788,0,0,1-7.466-13.409L44.912,45.368a8.773,8.773,0,0,1,14.932,0L86.014,87.74a4.091,4.091,0,0,0,6.961-4.3L66.805,41.069a16.955,16.955,0,0,0-28.855,0L2.565,98.359A16.97,16.97,0,0,0,16.993,124.25h70.77a16.7,16.7,0,0,0,14.025-7.427A16.919,16.919,0,0,0,103.548,101.051Z" transform="translate(0 -33.02)" fill="#2f95f0"/>
        <path id="Path_127" data-name="Path 127" d="M240.138,368.173a4.091,4.091,0,1,0,0-8.182h0a4.091,4.091,0,0,0,0,8.182Z" transform="translate(-187.758 -293.102)" fill="#04368f"/>
        <path id="Path_128" data-name="Path 128" d="M244.224,177.17V147.1a4.091,4.091,0,0,0-8.182,0V177.17a4.091,4.091,0,0,0,8.182,0Z" transform="translate(-187.755 -120.509)" fill="#005caf"/>
      </g>
    </g>
  </g>
</svg>
